<svg width="512" height="512" enable-background="new 0 0 24 24" version="1.1" viewBox="0 0 24 24" xmlns="http://www.w3.org/2000/svg">
 <path d="m1.5 1.633c-1.886 1.959-1.5 4.04-1.5 10.362 0 5.25-.916 10.513 3.878 11.752 1.497.385 14.761.385 16.256-.002 1.996-.515 3.62-2.134 3.842-4.957.031-.394.031-13.185-.001-13.587-.236-3.007-2.087-4.74-4.526-5.091-.559-.081-.671-.105-3.539-.11-10.173.005-12.403-.448-14.41 1.633z" fill="#f00"/>
 <path transform="matrix(.81824 0 0 .84259 2.1054 1.8017)" d="m19.528 12.102-11.75 6.7837v-13.567z" fill="#fff" style="paint-order:markers fill stroke"/>
</svg>
